<?xml version="1.0" standalone="no"?>
<!DOCTYPE svg PUBLIC "-//W3C//DTD SVG 20010904//EN"
 "http://www.w3.org/TR/2001/REC-SVG-20010904/DTD/svg10.dtd">
<svg version="1.0" xmlns="http://www.w3.org/2000/svg"
 width="700.000000pt" height="700.000000pt" viewBox="0 0 700.000000 700.000000"
 preserveAspectRatio="xMidYMid meet">
<metadata>
Created by potrace 1.11, written by Peter Selinger 2001-2013
</metadata>
<g transform="translate(0.000000,700.000000) scale(0.100000,-0.100000)"
fill="#000000" stroke="none">
<path d="M4010 6805 c-64 -30 -106 -73 -151 -153 -39 -69 -48 -85 -138 -240
-39 -67 -254 -438 -477 -825 -224 -386 -479 -826 -567 -977 -88 -151 -171
-295 -185 -320 -14 -25 -55 -97 -92 -160 -37 -63 -77 -131 -87 -150 -11 -19
-120 -208 -243 -419 -122 -212 -231 -403 -241 -425 -29 -65 -21 -167 17 -236
38 -66 117 -125 184 -136 25 -4 284 -7 576 -7 l531 0 -8 -36 c-7 -31 -43 -183
-55 -234 -2 -9 -6 -25 -8 -35 -15 -59 -48 -199 -51 -212 -2 -8 -9 -37 -15 -65
-6 -27 -13 -57 -15 -65 -4 -19 -105 -439 -110 -460 -2 -8 -17 -73 -34 -145
-17 -71 -48 -204 -70 -295 -22 -91 -42 -176 -45 -190 -11 -57 -107 -458 -117
-492 -15 -48 -6 -154 17 -203 10 -22 34 -55 54 -75 105 -105 281 -107 384 -4
26 26 110 160 231 369 105 181 192 333 195 339 3 6 12 22 21 36 9 14 87 149
174 300 87 151 178 308 201 347 24 40 44 75 44 78 0 3 8 18 19 33 15 22 128
216 271 467 56 97 151 262 160 275 5 8 30 51 55 95 25 44 56 98 69 120 174
295 654 1131 668 1165 29 66 20 176 -19 233 -55 82 -110 121 -191 133 -26 4
-283 8 -572 8 -382 1 -524 4 -523 12 1 6 4 22 6 35 3 13 10 44 17 69 7 25 14
54 16 65 4 19 32 137 94 400 51 211 122 509 125 525 9 45 66 282 70 292 2 7 7
25 10 41 13 67 16 83 21 99 3 9 6 25 8 35 2 10 9 38 16 63 7 25 14 53 16 63 2
10 5 26 8 35 3 9 7 28 10 42 2 14 14 65 26 114 12 49 23 94 24 100 4 24 58
253 65 276 10 34 -6 127 -30 175 -45 87 -127 137 -234 143 -59 2 -79 -1 -125
-23z"/>
</g>
</svg>
